{"title":"Three.2005.DVDRip.XviD-W33D","uid":6816135,"size":1045635425,"categoryP":"video","categoryS":"movies","magnet":"?xt=urn:btih:ebeda6dbdd1dc0bbea49276ae3fea3bb998bd286&amp;dn=Three.2005.DVDRip.XviD-W33D&amp;tr=udp%3A%2F%2Ftracker.openbittorrent.com%3A80&amp;tr=udp%3A%2F%2Fopen.demonii.com%3A1337&amp;tr=udp%3A%2F%2Ftracker.coppersurfer.tk%3A6969&amp;tr=udp%3A%2F%2Fexodus.desync.com%3A6969","seeders":0,"leechers":0,"uploader":"LegendET","files":2,"time":1321215012,"description":"[center][img]http://img404.imageshack.us/img404/8089/xvwmhzzk.jpg[/img]\n\n\n3 people marooned on a desert island, only one will survive. \n\n\n &lt;a href=&quot;\nhttp://www.imdb.com/title/tt0377309/&quot; rel=&quot;nofollow&quot; target=&quot;_NEW&quot;&gt;\nhttp://www.imdb.com/title/tt0377309/&lt;/a&gt;\n\n\n\n\n\n\n\nGeneral\nComplete name                    : Three.2005.DVDRip.XviD-W33D.avi\nFormat                           : AVI\nFormat/Info                      : Audio Video Interleave\nFile size                        : 997 MiB\nDuration                         : 1h 31mn\nOverall bit rate                 : 1 528 Kbps\nWriting application              : VirtualDubMod 1.5.10.2 (build 2540/release)\nWriting library                  : VirtualDubMod build 2540/release\n\nVideo\nID                               : 0\nFormat                           : MPEG-4 Visual\nFormat profile                   : Advanced Simple@L5\nFormat settings, BVOP            : 2\nFormat settings, QPel            : No\nFormat settings, GMC             : No warppoints\nFormat settings, Matrix          : Default (H.263)\nMuxing mode                      : Packed bitstream\nCodec ID                         : XVID\nCodec ID/Hint                    : XviD\nDuration                         : 1h 31mn\nBit rate                         : 1 070 Kbps\nWidth                            : 704 pixels\nHeight                           : 576 pixels\nDisplay aspect ratio             : 16:9\nFrame rate                       : 25.000 fps\nStandard                         : PAL\nColor space                      : YUV\nChroma subsampling               : 4:2:0\nBit depth                        : 8 bits\nScan type                        : Progressive\nCompression mode                 : Lossy\nBits/(Pixel*Frame)               : 0.106\nStream size                      : 698 MiB (70%)\nWriting library                  : XviD 1.2.1 (UTC 2008-12-04)\n\nAudio\nID                               : 1\nFormat                           : AC-3\nFormat/Info                      : Audio Coding 3\nMode extension                   : CM (complete main)\nCodec ID                         : 2000\nDuration                         : 1h 31mn\nBit rate mode                    : Constant\nBit rate                         : 448 Kbps\nChannel(s)                       : 6 channels\nChannel positions                : Front: L C R, Side: L R, LFE\nSampling rate                    : 48.0 KHz\nBit depth                        : 16 bits\nCompression mode                 : Lossy\nStream size                      : 292 MiB (29%)\nAlignment                        : Split accross interleaves\nInterleave, duration             : 40 ms (1.00 video frame)\nInterleave, preload duration     : 500 ms[/center]","torrent":{"xt":"urn:btih:ebeda6dbdd1dc0bbea49276ae3fea3bb998bd286","amp;dn":"Three.2005.DVDRip.XviD-W33D","amp;tr":["udp%3A%2F%2Ftracker.openbittorrent.com%3A80","udp%3A%2F%2Fopen.demonii.com%3A1337","udp%3A%2F%2Ftracker.coppersurfer.tk%3A6969","udp%3A%2F%2Fexodus.desync.com%3A6969"],"infoHash":"ebeda6dbdd1dc0bbea49276ae3fea3bb998bd286","infoHashBuffer":{"type":"Buffer","data":[235,237,166,219,221,29,192,187,234,73,39,106,227,254,163,187,153,139,210,134]},"announce":[],"urlList":[]}}